%TF.GenerationSoftware,KiCad,Pcbnew,(7.0.0)*%
%TF.CreationDate,2024-01-24T13:48:02-03:00*%
%TF.ProjectId,Ducha,44756368-612e-46b6-9963-61645f706362,rev?*%
%TF.SameCoordinates,Original*%
%TF.FileFunction,Paste,Top*%
%TF.FilePolarity,Positive*%
%FSLAX46Y46*%
G04 Gerber Fmt 4.6, Leading zero omitted, Abs format (unit mm)*
G04 Created by KiCad (PCBNEW (7.0.0)) date 2024-01-24 13:48:02*
%MOMM*%
%LPD*%
G01*
G04 APERTURE LIST*
G04 Aperture macros list*
%AMRoundRect*
0 Rectangle with rounded corners*
0 $1 Rounding radius*
0 $2 $3 $4 $5 $6 $7 $8 $9 X,Y pos of 4 corners*
0 Add a 4 corners polygon primitive as box body*
4,1,4,$2,$3,$4,$5,$6,$7,$8,$9,$2,$3,0*
0 Add four circle primitives for the rounded corners*
1,1,$1+$1,$2,$3*
1,1,$1+$1,$4,$5*
1,1,$1+$1,$6,$7*
1,1,$1+$1,$8,$9*
0 Add four rect primitives between the rounded corners*
20,1,$1+$1,$2,$3,$4,$5,0*
20,1,$1+$1,$4,$5,$6,$7,0*
20,1,$1+$1,$6,$7,$8,$9,0*
20,1,$1+$1,$8,$9,$2,$3,0*%
G04 Aperture macros list end*
%ADD10RoundRect,0.200000X-0.275000X0.200000X-0.275000X-0.200000X0.275000X-0.200000X0.275000X0.200000X0*%
%ADD11RoundRect,0.225000X0.225000X0.250000X-0.225000X0.250000X-0.225000X-0.250000X0.225000X-0.250000X0*%
%ADD12RoundRect,0.225000X-0.225000X-0.250000X0.225000X-0.250000X0.225000X0.250000X-0.225000X0.250000X0*%
%ADD13RoundRect,0.150000X0.587500X0.150000X-0.587500X0.150000X-0.587500X-0.150000X0.587500X-0.150000X0*%
%ADD14RoundRect,0.200000X0.275000X-0.200000X0.275000X0.200000X-0.275000X0.200000X-0.275000X-0.200000X0*%
%ADD15RoundRect,0.100000X0.637500X0.100000X-0.637500X0.100000X-0.637500X-0.100000X0.637500X-0.100000X0*%
%ADD16RoundRect,0.200000X-0.200000X-0.275000X0.200000X-0.275000X0.200000X0.275000X-0.200000X0.275000X0*%
%ADD17RoundRect,0.225000X-0.250000X0.225000X-0.250000X-0.225000X0.250000X-0.225000X0.250000X0.225000X0*%
%ADD18RoundRect,0.150000X-0.587500X-0.150000X0.587500X-0.150000X0.587500X0.150000X-0.587500X0.150000X0*%
%ADD19RoundRect,0.225000X0.250000X-0.225000X0.250000X0.225000X-0.250000X0.225000X-0.250000X-0.225000X0*%
%ADD20RoundRect,0.200000X0.200000X0.275000X-0.200000X0.275000X-0.200000X-0.275000X0.200000X-0.275000X0*%
%ADD21RoundRect,0.150000X0.150000X-0.587500X0.150000X0.587500X-0.150000X0.587500X-0.150000X-0.587500X0*%
%ADD22RoundRect,0.008100X-0.551900X-0.126900X0.551900X-0.126900X0.551900X0.126900X-0.551900X0.126900X0*%
%ADD23RoundRect,0.011200X0.128800X-0.723800X0.128800X0.723800X-0.128800X0.723800X-0.128800X-0.723800X0*%
%ADD24O,1.350000X0.299999*%
%ADD25RoundRect,0.250000X1.000000X0.650000X-1.000000X0.650000X-1.000000X-0.650000X1.000000X-0.650000X0*%
G04 APERTURE END LIST*
D10*
%TO.C,R4*%
X76200000Y-126366000D03*
X76200000Y-128016000D03*
%TD*%
D11*
%TO.C,C7*%
X71400000Y-93472000D03*
X69850000Y-93472000D03*
%TD*%
D12*
%TO.C,C5*%
X69316000Y-124714000D03*
X70866000Y-124714000D03*
%TD*%
D13*
%TO.C,Q2*%
X74343500Y-133284000D03*
X74343500Y-131384000D03*
X72468500Y-132334000D03*
%TD*%
D14*
%TO.C,R15*%
X75946000Y-66103000D03*
X75946000Y-64453000D03*
%TD*%
D15*
%TO.C,U4*%
X75862100Y-122854000D03*
X75862100Y-122204000D03*
X75862100Y-121554000D03*
X75862100Y-120904000D03*
X75862100Y-120254000D03*
X75862100Y-119604000D03*
X75862100Y-118954000D03*
X70137100Y-118954000D03*
X70137100Y-119604000D03*
X70137100Y-120254000D03*
X70137100Y-120904000D03*
X70137100Y-121554000D03*
X70137100Y-122204000D03*
X70137100Y-122854000D03*
%TD*%
D16*
%TO.C,R14*%
X68962000Y-132334000D03*
X70612000Y-132334000D03*
%TD*%
D13*
%TO.C,Q1*%
X74265000Y-128204000D03*
X74265000Y-126304000D03*
X72390000Y-127254000D03*
%TD*%
D17*
%TO.C,C12*%
X77470000Y-64503000D03*
X77470000Y-66053000D03*
%TD*%
D18*
%TO.C,Q4*%
X112425000Y-145100000D03*
X112425000Y-147000000D03*
X114300000Y-146050000D03*
%TD*%
D17*
%TO.C,C2*%
X77724000Y-78968000D03*
X77724000Y-80518000D03*
%TD*%
D19*
%TO.C,C10*%
X67310000Y-66307000D03*
X67310000Y-64757000D03*
%TD*%
D20*
%TO.C,R16*%
X80771000Y-75438000D03*
X79121000Y-75438000D03*
%TD*%
D12*
%TO.C,C1*%
X76695000Y-60452000D03*
X78245000Y-60452000D03*
%TD*%
D20*
%TO.C,R11*%
X77660000Y-69723000D03*
X76010000Y-69723000D03*
%TD*%
D14*
%TO.C,R9*%
X75184000Y-60515000D03*
X75184000Y-58865000D03*
%TD*%
D16*
%TO.C,R3*%
X68708000Y-127254000D03*
X70358000Y-127254000D03*
%TD*%
D21*
%TO.C,Q5*%
X70109000Y-60579000D03*
X72009000Y-60579000D03*
X71059000Y-58704000D03*
%TD*%
D20*
%TO.C,R26*%
X76263000Y-94107000D03*
X74613000Y-94107000D03*
%TD*%
D14*
%TO.C,R2*%
X116205000Y-149415000D03*
X116205000Y-147765000D03*
%TD*%
%TO.C,R6*%
X110490000Y-146875000D03*
X110490000Y-145225000D03*
%TD*%
%TO.C,R17*%
X83566000Y-74739000D03*
X83566000Y-73089000D03*
%TD*%
D18*
%TO.C,Q3*%
X112425000Y-148910000D03*
X112425000Y-150810000D03*
X114300000Y-149860000D03*
%TD*%
D22*
%TO.C,U6*%
X83550000Y-60730000D03*
X83550000Y-61230000D03*
X83550000Y-61730000D03*
X83550000Y-62230000D03*
X86360000Y-62230000D03*
X86360000Y-61730000D03*
X86360000Y-61230000D03*
X86360000Y-60730000D03*
%TD*%
D10*
%TO.C,R13*%
X76200000Y-131509000D03*
X76200000Y-133159000D03*
%TD*%
D23*
%TO.C,U5*%
X79384000Y-84342000D03*
X79884000Y-84342000D03*
X80384000Y-84342000D03*
X80884000Y-84342000D03*
X81384000Y-84342000D03*
X81384000Y-80042000D03*
X80884000Y-80042000D03*
X80384000Y-80042000D03*
X79884000Y-80042000D03*
X79384000Y-80042000D03*
%TD*%
D14*
%TO.C,R1*%
X110490000Y-150685000D03*
X110490000Y-149035000D03*
%TD*%
D11*
%TO.C,C3*%
X71400000Y-91948000D03*
X69850000Y-91948000D03*
%TD*%
D14*
%TO.C,R7*%
X116205000Y-146240000D03*
X116205000Y-144590000D03*
%TD*%
%TO.C,R18*%
X73599000Y-62561500D03*
X73599000Y-60911500D03*
%TD*%
D17*
%TO.C,C11*%
X67310000Y-69837000D03*
X67310000Y-71387000D03*
%TD*%
D20*
%TO.C,R8*%
X78105000Y-98298000D03*
X76455000Y-98298000D03*
%TD*%
%TO.C,R12*%
X76326000Y-129794000D03*
X74676000Y-129794000D03*
%TD*%
D19*
%TO.C,C6*%
X67310000Y-95263000D03*
X67310000Y-93713000D03*
%TD*%
D24*
%TO.C,U3*%
X69784000Y-66817998D03*
X69784000Y-67317997D03*
X69784000Y-67817999D03*
X69784000Y-68317998D03*
X69784000Y-68818000D03*
X74234001Y-68818000D03*
X74234001Y-68317998D03*
X74234001Y-67817999D03*
X74234001Y-67317997D03*
X74234001Y-66817998D03*
%TD*%
D16*
%TO.C,R10*%
X76645000Y-58928000D03*
X78295000Y-58928000D03*
%TD*%
D17*
%TO.C,C4*%
X67310000Y-98806000D03*
X67310000Y-100356000D03*
%TD*%
D20*
%TO.C,R5*%
X76072000Y-124714000D03*
X74422000Y-124714000D03*
%TD*%
D25*
%TO.C,D1*%
X63976000Y-154432000D03*
X59976000Y-154432000D03*
%TD*%
D20*
%TO.C,R19*%
X71947000Y-62689500D03*
X70297000Y-62689500D03*
%TD*%
D24*
%TO.C,U2*%
X69590998Y-95781999D03*
X69590998Y-96281998D03*
X69590998Y-96782000D03*
X69590998Y-97281999D03*
X69590998Y-97782001D03*
X74040999Y-97782001D03*
X74040999Y-97281999D03*
X74040999Y-96782000D03*
X74040999Y-96281998D03*
X74040999Y-95781999D03*
%TD*%
D12*
%TO.C,C8*%
X69570000Y-117094000D03*
X71120000Y-117094000D03*
%TD*%
D11*
%TO.C,C13*%
X72657000Y-65278000D03*
X71107000Y-65278000D03*
%TD*%
M02*
