M48
; DRILL file {KiCad (7.0.0)} date Wed Jan 24 13:28:14 2024
; FORMAT={-:-/ absolute / metric / decimal}
; #@! TF.CreationDate,2024-01-24T13:28:14-03:00
; #@! TF.GenerationSoftware,Kicad,Pcbnew,(7.0.0)
; #@! TF.FileFunction,Plated,1,2,PTH
FMAT,2
METRIC
; #@! TA.AperFunction,Plated,PTH,ViaDrill
T1C0.400
; #@! TA.AperFunction,Plated,PTH,ComponentDrill
T2C0.800
; #@! TA.AperFunction,Plated,PTH,ComponentDrill
T3C1.000
; #@! TA.AperFunction,Plated,PTH,ComponentDrill
T4C1.067
; #@! TA.AperFunction,Plated,PTH,ComponentDrill
T5C1.295
; #@! TA.AperFunction,Plated,PTH,ComponentDrill
T6C1.520
%
G90
G05
T1
X56.5Y-58.75
X56.5Y-61.75
X56.5Y-64.75
X56.5Y-67.25
X56.5Y-68.75
X56.5Y-71.25
X56.5Y-74.0
X56.5Y-76.5
X56.5Y-88.25
X56.5Y-91.0
X56.5Y-94.0
X56.5Y-96.5
X56.5Y-97.75
X56.5Y-100.25
X56.5Y-103.25
X56.5Y-106.0
X71.882Y-123.0
X72.25Y-67.25
X77.216Y-61.722
X77.216Y-84.074
X78.8Y-95.1
X79.151Y-77.112
X79.2Y-87.4
X79.5Y-67.2
X79.6Y-68.6
X79.756Y-61.722
X79.876Y-82.954
X80.01Y-58.674
X80.264Y-124.714
X80.638Y-82.169
X81.026Y-126.746
X82.55Y-83.058
X83.058Y-124.206
X83.82Y-71.882
X84.582Y-57.658
X87.63Y-78.486
X88.011Y-70.612
X88.392Y-124.206
X89.281Y-68.961
X89.408Y-81.28
X90.424Y-69.723
X103.378Y-72.644
X107.315Y-65.405
X107.696Y-145.288
X107.95Y-67.945
X107.95Y-148.844
X112.268Y-149.86
X113.665Y-88.9
X114.935Y-84.565
X116.224Y-79.775
X117.602Y-74.168
X118.364Y-144.78
X118.364Y-147.828
T2
X97.028Y-55.372
X97.028Y-57.912
X97.028Y-60.452
X97.028Y-62.992
X97.028Y-65.532
X97.028Y-68.072
X97.028Y-70.612
X97.028Y-73.152
X97.028Y-75.692
X97.028Y-78.232
X97.028Y-80.772
X97.028Y-83.312
X97.028Y-85.852
X97.028Y-88.392
X97.028Y-90.932
X97.028Y-93.472
X119.888Y-55.372
X119.888Y-57.912
X119.888Y-60.452
X119.888Y-62.992
X119.888Y-65.532
X119.888Y-68.072
X119.888Y-70.612
X119.888Y-73.152
X119.888Y-75.692
X119.888Y-78.232
X119.888Y-80.772
X119.888Y-83.312
X119.888Y-85.852
X119.888Y-88.392
X119.888Y-90.932
X119.888Y-93.472
T3
X68.498Y-145.796
X73.498Y-145.796
X78.486Y-149.098
X81.026Y-149.098
X83.566Y-149.098
X86.106Y-149.098
X88.646Y-149.098
X91.186Y-149.098
X93.726Y-149.098
X96.266Y-149.098
T4
X106.68Y-156.21
X109.22Y-156.21
X111.76Y-156.21
X114.3Y-156.21
X120.65Y-114.3
X120.65Y-116.84
X120.65Y-119.38
X120.65Y-121.92
X120.65Y-128.27
X120.65Y-130.81
X120.65Y-133.35
X120.65Y-135.89
X120.65Y-142.24
X120.65Y-144.78
X120.65Y-147.32
X120.65Y-149.86
T5
X54.61Y-56.54
X54.61Y-59.08
X54.61Y-61.62
X54.61Y-64.16
X54.61Y-66.7
X54.61Y-69.24
X54.61Y-71.78
X54.61Y-74.32
X54.61Y-76.86
X54.61Y-79.4
X54.61Y-85.75
X54.61Y-88.29
X54.61Y-90.83
X54.61Y-93.37
X54.61Y-95.91
X54.61Y-98.45
X54.61Y-100.99
X54.61Y-103.53
X54.61Y-106.07
X54.61Y-108.61
X54.61Y-115.316
X54.61Y-117.856
X54.61Y-120.396
X54.61Y-122.936
X54.61Y-125.476
X54.61Y-128.016
X54.61Y-130.556
X54.61Y-133.096
X54.61Y-135.636
X54.61Y-138.176
X66.675Y-46.482
X69.215Y-46.482
X71.755Y-46.482
X74.295Y-46.482
X76.835Y-46.482
X79.375Y-46.482
X81.915Y-46.482
X84.455Y-46.482
X86.995Y-46.482
X89.535Y-46.482
T6
X55.0Y-143.46
X55.0Y-148.54
T0
M30
